G04 Layer: TopSilkLayer*
G04 EasyEDA v6.4.19.4, 2021-04-26T14:19:55+08:00*
G04 bb5b95a08457485f97d9af8ca6741c64,50e18b4aeadc48e1a6b1b5d6e25f7a68,10*
G04 Gerber Generator version 0.2*
G04 Scale: 100 percent, Rotated: No, Reflected: No *
G04 Dimensions in millimeters *
G04 leading zeros omitted , absolute positions ,4 integer and 5 decimal *
%FSLAX45Y45*%
%MOMM*%

%ADD10C,0.2540*%
%ADD21C,0.2032*%
%ADD22C,0.2030*%
%ADD23C,0.1500*%
%ADD24C,0.1524*%

%LPD*%
D21*
X847344Y-1688337D02*
G01*
X847344Y-1817623D01*
X847344Y-1716023D02*
G01*
X829055Y-1697736D01*
X810513Y-1688337D01*
X782828Y-1688337D01*
X764286Y-1697736D01*
X745744Y-1716023D01*
X736600Y-1743710D01*
X736600Y-1762252D01*
X745744Y-1789937D01*
X764286Y-1808479D01*
X782828Y-1817623D01*
X810513Y-1817623D01*
X829055Y-1808479D01*
X847344Y-1789937D01*
X908304Y-1688337D02*
G01*
X908304Y-1817623D01*
X908304Y-1743710D02*
G01*
X917702Y-1716023D01*
X935989Y-1697736D01*
X954531Y-1688337D01*
X982218Y-1688337D01*
X1154176Y-1716023D02*
G01*
X1135634Y-1697736D01*
X1117092Y-1688337D01*
X1089405Y-1688337D01*
X1070863Y-1697736D01*
X1052576Y-1716023D01*
X1043178Y-1743710D01*
X1043178Y-1762252D01*
X1052576Y-1789937D01*
X1070863Y-1808479D01*
X1089405Y-1817623D01*
X1117092Y-1817623D01*
X1135634Y-1808479D01*
X1154176Y-1789937D01*
X1325879Y-1688337D02*
G01*
X1325879Y-1817623D01*
X1325879Y-1716023D02*
G01*
X1307337Y-1697736D01*
X1289050Y-1688337D01*
X1261110Y-1688337D01*
X1242821Y-1697736D01*
X1224279Y-1716023D01*
X1215136Y-1743710D01*
X1215136Y-1762252D01*
X1224279Y-1789937D01*
X1242821Y-1808479D01*
X1261110Y-1817623D01*
X1289050Y-1817623D01*
X1307337Y-1808479D01*
X1325879Y-1789937D01*
X464057Y-1927352D02*
G01*
X464057Y-1920494D01*
X470915Y-1907031D01*
X477773Y-1900173D01*
X491236Y-1893315D01*
X518668Y-1893315D01*
X532129Y-1900173D01*
X538987Y-1907031D01*
X545845Y-1920494D01*
X545845Y-1934210D01*
X538987Y-1947926D01*
X525271Y-1968245D01*
X457200Y-2036571D01*
X552704Y-2036571D01*
X638555Y-1893315D02*
G01*
X618236Y-1900173D01*
X604520Y-1920494D01*
X597662Y-1954784D01*
X597662Y-1975104D01*
X604520Y-2009139D01*
X618236Y-2029713D01*
X638555Y-2036571D01*
X652271Y-2036571D01*
X672592Y-2029713D01*
X686307Y-2009139D01*
X693165Y-1975104D01*
X693165Y-1954784D01*
X686307Y-1920494D01*
X672592Y-1900173D01*
X652271Y-1893315D01*
X638555Y-1893315D01*
X744981Y-1927352D02*
G01*
X744981Y-1920494D01*
X751839Y-1907031D01*
X758444Y-1900173D01*
X772160Y-1893315D01*
X799592Y-1893315D01*
X813054Y-1900173D01*
X819912Y-1907031D01*
X826770Y-1920494D01*
X826770Y-1934210D01*
X819912Y-1947926D01*
X806195Y-1968245D01*
X738123Y-2036571D01*
X833628Y-2036571D01*
X878586Y-1920494D02*
G01*
X892302Y-1913889D01*
X912621Y-1893315D01*
X912621Y-2036571D01*
X998473Y-1893315D02*
G01*
X978154Y-1900173D01*
X964437Y-1920494D01*
X957579Y-1954784D01*
X957579Y-1975104D01*
X964437Y-2009139D01*
X978154Y-2029713D01*
X998473Y-2036571D01*
X1012189Y-2036571D01*
X1032763Y-2029713D01*
X1046226Y-2009139D01*
X1053084Y-1975104D01*
X1053084Y-1954784D01*
X1046226Y-1920494D01*
X1032763Y-1900173D01*
X1012189Y-1893315D01*
X998473Y-1893315D01*
X1166368Y-1893315D02*
G01*
X1098042Y-1988820D01*
X1200404Y-1988820D01*
X1166368Y-1893315D02*
G01*
X1166368Y-2036571D01*
X1286255Y-1893315D02*
G01*
X1265936Y-1900173D01*
X1252220Y-1920494D01*
X1245362Y-1954784D01*
X1245362Y-1975104D01*
X1252220Y-2009139D01*
X1265936Y-2029713D01*
X1286255Y-2036571D01*
X1299971Y-2036571D01*
X1320292Y-2029713D01*
X1334007Y-2009139D01*
X1340865Y-1975104D01*
X1340865Y-1954784D01*
X1334007Y-1920494D01*
X1320292Y-1900173D01*
X1299971Y-1893315D01*
X1286255Y-1893315D01*
X1467612Y-1893315D02*
G01*
X1399539Y-1893315D01*
X1392681Y-1954784D01*
X1399539Y-1947926D01*
X1419860Y-1941068D01*
X1440434Y-1941068D01*
X1460754Y-1947926D01*
X1474470Y-1961642D01*
X1481328Y-1981962D01*
X1481328Y-1995678D01*
X1474470Y-2015997D01*
X1460754Y-2029713D01*
X1440434Y-2036571D01*
X1419860Y-2036571D01*
X1399539Y-2029713D01*
X1392681Y-2022855D01*
X1385823Y-2009139D01*
D24*
X1119256Y-1599737D02*
G01*
X1114059Y-1589346D01*
X1103668Y-1578955D01*
X1093279Y-1573761D01*
X1072497Y-1573761D01*
X1062106Y-1578955D01*
X1051714Y-1589346D01*
X1046518Y-1599737D01*
X1041323Y-1615325D01*
X1041323Y-1641302D01*
X1046518Y-1656887D01*
X1051714Y-1667278D01*
X1062106Y-1677670D01*
X1072497Y-1682864D01*
X1093279Y-1682864D01*
X1103668Y-1677670D01*
X1114059Y-1667278D01*
X1119256Y-1656887D01*
X1153546Y-1573761D02*
G01*
X1153546Y-1682864D01*
X1153546Y-1573761D02*
G01*
X1221087Y-1573761D01*
X1153546Y-1625714D02*
G01*
X1195108Y-1625714D01*
X1255377Y-1636105D02*
G01*
X1348894Y-1636105D01*
X1092200Y-1776961D02*
G01*
X1092200Y-1886064D01*
X1092200Y-1776961D02*
G01*
X1138958Y-1776961D01*
X1154544Y-1782155D01*
X1159741Y-1787352D01*
X1164935Y-1797743D01*
X1164935Y-1808134D01*
X1159741Y-1818525D01*
X1154544Y-1823720D01*
X1138958Y-1828914D01*
X1092200Y-1828914D01*
X1128567Y-1828914D02*
G01*
X1164935Y-1886064D01*
X1199225Y-1776961D02*
G01*
X1199225Y-1886064D01*
X1199225Y-1776961D02*
G01*
X1245984Y-1776961D01*
X1261572Y-1782155D01*
X1266766Y-1787352D01*
X1271963Y-1797743D01*
X1271963Y-1808134D01*
X1266766Y-1818525D01*
X1261572Y-1823720D01*
X1245984Y-1828914D01*
X1199225Y-1828914D02*
G01*
X1245984Y-1828914D01*
X1261572Y-1834111D01*
X1266766Y-1839305D01*
X1271963Y-1849696D01*
X1271963Y-1865284D01*
X1266766Y-1875675D01*
X1261572Y-1880870D01*
X1245984Y-1886064D01*
X1199225Y-1886064D01*
X1306253Y-1839305D02*
G01*
X1399771Y-1839305D01*
X1527175Y-1893315D02*
G01*
X1527175Y-1784350D01*
X1527175Y-1893315D02*
G01*
X1480438Y-1893315D01*
X1464945Y-1888236D01*
X1459611Y-1882902D01*
X1454530Y-1872487D01*
X1454530Y-1862073D01*
X1459611Y-1851660D01*
X1464945Y-1846579D01*
X1480438Y-1841500D01*
X1527175Y-1841500D01*
X1490853Y-1841500D02*
G01*
X1454530Y-1784350D01*
X1420240Y-1893315D02*
G01*
X1420240Y-1784350D01*
X1420240Y-1893315D02*
G01*
X1373504Y-1893315D01*
X1357756Y-1888236D01*
X1352677Y-1882902D01*
X1347343Y-1872487D01*
X1347343Y-1862073D01*
X1352677Y-1851660D01*
X1357756Y-1846579D01*
X1373504Y-1841500D01*
X1420240Y-1841500D02*
G01*
X1373504Y-1841500D01*
X1357756Y-1836165D01*
X1352677Y-1831086D01*
X1347343Y-1820671D01*
X1347343Y-1804923D01*
X1352677Y-1794510D01*
X1357756Y-1789429D01*
X1373504Y-1784350D01*
X1420240Y-1784350D01*
X1266317Y-1877821D02*
G01*
X1266317Y-1784350D01*
X1313053Y-1831086D02*
G01*
X1219580Y-1831086D01*
X-51307Y-1026921D02*
G01*
X-61721Y-1032255D01*
X-72136Y-1042670D01*
X-77215Y-1052829D01*
X-77215Y-1073657D01*
X-72136Y-1084071D01*
X-61721Y-1094486D01*
X-51307Y-1099820D01*
X-35560Y-1104900D01*
X-9652Y-1104900D01*
X5842Y-1099820D01*
X16255Y-1094486D01*
X26670Y-1084071D01*
X31750Y-1073657D01*
X31750Y-1052829D01*
X26670Y-1042670D01*
X16255Y-1032255D01*
X5842Y-1026921D01*
X-9652Y-1026921D01*
X-9652Y-1052829D02*
G01*
X-9652Y-1026921D01*
X-77215Y-992631D02*
G01*
X31750Y-992631D01*
X-51307Y-880363D02*
G01*
X-61721Y-885697D01*
X-72136Y-896112D01*
X-77215Y-906526D01*
X-77215Y-927100D01*
X-72136Y-937513D01*
X-61721Y-947928D01*
X-51307Y-953262D01*
X-35560Y-958342D01*
X-9652Y-958342D01*
X5842Y-953262D01*
X16255Y-947928D01*
X26670Y-937513D01*
X31750Y-927100D01*
X31750Y-906526D01*
X26670Y-896112D01*
X16255Y-885697D01*
X5842Y-880363D01*
X-9652Y-880363D01*
X-9652Y-906526D02*
G01*
X-9652Y-880363D01*
X-77215Y-815086D02*
G01*
X-72136Y-825500D01*
X-61721Y-835660D01*
X-51307Y-840994D01*
X-35560Y-846073D01*
X-9652Y-846073D01*
X5842Y-840994D01*
X16255Y-835660D01*
X26670Y-825500D01*
X31750Y-815086D01*
X31750Y-794257D01*
X26670Y-783844D01*
X16255Y-773429D01*
X5842Y-768350D01*
X-9652Y-763015D01*
X-35560Y-763015D01*
X-51307Y-768350D01*
X-61721Y-773429D01*
X-72136Y-783844D01*
X-77215Y-794257D01*
X-77215Y-815086D01*
X-77215Y-728726D02*
G01*
X31750Y-687070D01*
X-77215Y-645668D02*
G01*
X31750Y-687070D01*
X521715Y-800176D02*
G01*
X412750Y-800176D01*
X521715Y-800176D02*
G01*
X521715Y-846912D01*
X516636Y-862406D01*
X511302Y-867740D01*
X500887Y-872820D01*
X490473Y-872820D01*
X480060Y-867740D01*
X474979Y-862406D01*
X469900Y-846912D01*
X469900Y-800176D01*
X469900Y-836498D02*
G01*
X412750Y-872820D01*
X500887Y-907110D02*
G01*
X506221Y-917524D01*
X521715Y-933272D01*
X412750Y-933272D01*
X419224Y-189575D02*
G01*
X460880Y-298541D01*
X502282Y-189575D02*
G01*
X460880Y-298541D01*
X536572Y-189575D02*
G01*
X536572Y-298541D01*
X536572Y-189575D02*
G01*
X583308Y-189575D01*
X599056Y-194655D01*
X604136Y-199989D01*
X609470Y-210403D01*
X609470Y-220817D01*
X604136Y-231231D01*
X599056Y-236311D01*
X583308Y-241391D01*
X536572Y-241391D01*
X572894Y-241391D02*
G01*
X609470Y-298541D01*
X643760Y-210403D02*
G01*
X654174Y-205069D01*
X669668Y-189575D01*
X669668Y-298541D01*
X1143000Y-341884D02*
G01*
X1143000Y-419862D01*
X1148079Y-435355D01*
X1158494Y-445770D01*
X1174242Y-450850D01*
X1184655Y-450850D01*
X1200150Y-445770D01*
X1210563Y-435355D01*
X1215644Y-419862D01*
X1215644Y-341884D01*
X1249934Y-362712D02*
G01*
X1260347Y-357378D01*
X1276095Y-341884D01*
X1276095Y-450850D01*
X521715Y-444500D02*
G01*
X412750Y-444500D01*
X412750Y-444500D02*
G01*
X412750Y-506729D01*
X521715Y-541020D02*
G01*
X412750Y-541020D01*
X521715Y-541020D02*
G01*
X521715Y-608584D01*
X469900Y-541020D02*
G01*
X469900Y-582676D01*
X412750Y-541020D02*
G01*
X412750Y-608584D01*
X521715Y-642873D02*
G01*
X412750Y-642873D01*
X521715Y-642873D02*
G01*
X521715Y-679450D01*
X516636Y-694944D01*
X506221Y-705357D01*
X495807Y-710437D01*
X480060Y-715771D01*
X454152Y-715771D01*
X438657Y-710437D01*
X428244Y-705357D01*
X417829Y-694944D01*
X412750Y-679450D01*
X412750Y-642873D01*
X500887Y-750062D02*
G01*
X506221Y-760476D01*
X521715Y-775970D01*
X412750Y-775970D01*
G36*
X433933Y-940511D02*
G01*
X469900Y-966469D01*
X505917Y-941476D01*
G37*
D10*
X675896Y-1680202D02*
G01*
X675896Y-1520200D01*
X1025903Y-1680202D02*
G01*
X1025900Y-1520197D01*
X800900Y-1496199D02*
G01*
X695901Y-1496199D01*
X800900Y-1704200D02*
G01*
X695901Y-1704200D01*
X900899Y-1496199D02*
G01*
X1005898Y-1496199D01*
X900899Y-1704200D02*
G01*
X1005898Y-1704200D01*
X1025903Y-1682193D02*
G01*
X1025903Y-1680202D01*
X1025903Y-1684195D02*
G01*
X1025903Y-1680202D01*
X1025900Y-1516202D02*
G01*
X1025900Y-1520197D01*
X675896Y-1684195D02*
G01*
X675896Y-1680202D01*
X675896Y-1516204D02*
G01*
X675896Y-1520200D01*
X900899Y-1905396D02*
G01*
X1025900Y-1905396D01*
X900899Y-1701403D02*
G01*
X1025900Y-1701403D01*
X800900Y-1905396D02*
G01*
X675899Y-1905396D01*
X800900Y-1701403D02*
G01*
X675899Y-1701403D01*
X1025903Y-1905396D02*
G01*
X1025900Y-1701403D01*
X675899Y-1905396D02*
G01*
X675899Y-1701403D01*
X1345399Y-1714896D02*
G01*
X1470400Y-1714896D01*
X1345399Y-1510903D02*
G01*
X1470400Y-1510903D01*
X1245400Y-1714896D02*
G01*
X1120399Y-1714896D01*
X1245400Y-1510903D02*
G01*
X1120399Y-1510903D01*
X1470403Y-1714896D02*
G01*
X1470400Y-1510903D01*
X1120399Y-1714896D02*
G01*
X1120399Y-1510903D01*
D21*
X63500Y-1524000D02*
G01*
X63500Y-1714500D01*
X317500Y-1714500D01*
X317500Y-444500D01*
X63500Y-444500D01*
D22*
X63500Y-444500D02*
G01*
X63500Y-1524000D01*
D10*
X367903Y-621499D02*
G01*
X367903Y-746500D01*
X571896Y-621499D02*
G01*
X571896Y-746500D01*
X367903Y-521500D02*
G01*
X367903Y-396499D01*
X571896Y-521500D02*
G01*
X571896Y-396499D01*
X367903Y-746503D02*
G01*
X571896Y-746500D01*
X367903Y-396499D02*
G01*
X571896Y-396499D01*
X1092296Y-421698D02*
G01*
X1092296Y-376702D01*
X1092296Y-156697D02*
G01*
X1092296Y-111701D01*
X767298Y-256697D02*
G01*
X767298Y-276702D01*
X872291Y-421698D02*
G01*
X1092296Y-421698D01*
X872296Y-111701D02*
G01*
X1092296Y-111701D01*
X635000Y-1230962D02*
G01*
X1651000Y-1230962D01*
X635000Y-724537D02*
G01*
X1651000Y-724537D01*
X1651000Y-1230962D02*
G01*
X1651000Y-724537D01*
X635000Y-1230962D02*
G01*
X635000Y-1054100D01*
X635000Y-901700D02*
G01*
X635000Y-724537D01*
D23*
X542899Y-989500D02*
G01*
X542899Y-1104498D01*
X397901Y-1104498D01*
X397901Y-984498D01*
X396900Y-922500D02*
G01*
X396900Y-798499D01*
X541898Y-798499D01*
X541898Y-922500D01*
X542899Y-1104498D02*
G01*
X542899Y-1107500D01*
X522899Y-1127500D01*
X420900Y-1127500D01*
X417901Y-1124498D01*
X397901Y-1104498D01*
D10*
G75*
G01*
X1005898Y-1704200D02*
G03*
X1025903Y-1684195I0J20005D01*
G75*
G01*
X1005898Y-1496200D02*
G02*
X1025901Y-1516202I0J-20002D01*
G75*
G01*
X695902Y-1704200D02*
G02*
X675897Y-1684195I0J20005D01*
G75*
G01*
X695902Y-1496200D02*
G03*
X675897Y-1516205I0J-20005D01*
G75*
G01*
X635000Y-901700D02*
G02*
X635000Y-1054100I0J-76200D01*
M02*
