G04 Layer: BottomSilkLayer*
G04 EasyEDA v6.4.19.4, 2021-04-26T14:19:55+08:00*
G04 bb5b95a08457485f97d9af8ca6741c64,50e18b4aeadc48e1a6b1b5d6e25f7a68,10*
G04 Gerber Generator version 0.2*
G04 Scale: 100 percent, Rotated: No, Reflected: No *
G04 Dimensions in millimeters *
G04 leading zeros omitted , absolute positions ,4 integer and 5 decimal *
%FSLAX45Y45*%
%MOMM*%

%ADD21C,0.2032*%

%LPD*%
D21*
X1534391Y-887153D02*
G01*
X1663700Y-1081115D01*
X1663700Y-887153D02*
G01*
X1534391Y-887153D01*
X1663700Y-1081115D02*
G01*
X1534391Y-1081115D01*
X1473431Y-997988D02*
G01*
X1307175Y-997988D01*
X1246215Y-951806D02*
G01*
X1246215Y-1145771D01*
X1246215Y-979515D02*
G01*
X1227742Y-961044D01*
X1209271Y-951806D01*
X1181562Y-951806D01*
X1163088Y-961044D01*
X1144615Y-979515D01*
X1135379Y-1007224D01*
X1135379Y-1025697D01*
X1144615Y-1053406D01*
X1163088Y-1071879D01*
X1181562Y-1081115D01*
X1209271Y-1081115D01*
X1227742Y-1071879D01*
X1246215Y-1053406D01*
X1074420Y-951806D02*
G01*
X1074420Y-1081115D01*
X1074420Y-1007224D02*
G01*
X1065182Y-979515D01*
X1046711Y-961044D01*
X1028237Y-951806D01*
X1000528Y-951806D01*
X893386Y-951806D02*
G01*
X911860Y-961044D01*
X930333Y-979515D01*
X939568Y-1007224D01*
X939568Y-1025697D01*
X930333Y-1053406D01*
X911860Y-1071879D01*
X893386Y-1081115D01*
X865677Y-1081115D01*
X847204Y-1071879D01*
X828733Y-1053406D01*
X819495Y-1025697D01*
X819495Y-1007224D01*
X828733Y-979515D01*
X847204Y-961044D01*
X865677Y-951806D01*
X893386Y-951806D01*
X758535Y-887153D02*
G01*
X758535Y-1081115D01*
X758535Y-979515D02*
G01*
X740062Y-961044D01*
X721591Y-951806D01*
X693882Y-951806D01*
X675408Y-961044D01*
X656935Y-979515D01*
X647700Y-1007224D01*
X647700Y-1025697D01*
X656935Y-1053406D01*
X675408Y-1071879D01*
X693882Y-1081115D01*
X721591Y-1081115D01*
X740062Y-1071879D01*
X758535Y-1053406D01*
X586739Y-1007224D02*
G01*
X475902Y-1007224D01*
X475902Y-988753D01*
X485139Y-970279D01*
X494375Y-961044D01*
X512848Y-951806D01*
X540557Y-951806D01*
X559031Y-961044D01*
X577502Y-979515D01*
X586739Y-1007224D01*
X586739Y-1025697D01*
X577502Y-1053406D01*
X559031Y-1071879D01*
X540557Y-1081115D01*
X512848Y-1081115D01*
X494375Y-1071879D01*
X475902Y-1053406D01*
X1816097Y-685037D02*
G01*
X1816097Y-879094D01*
X1816097Y-712723D02*
G01*
X1797555Y-694436D01*
X1779267Y-685037D01*
X1751327Y-685037D01*
X1733039Y-694436D01*
X1714497Y-712723D01*
X1705353Y-740410D01*
X1705353Y-758952D01*
X1714497Y-786637D01*
X1733039Y-805179D01*
X1751327Y-814323D01*
X1779267Y-814323D01*
X1797555Y-805179D01*
X1816097Y-786637D01*
X1644393Y-620521D02*
G01*
X1634995Y-629665D01*
X1625851Y-620521D01*
X1634995Y-611123D01*
X1644393Y-620521D01*
X1634995Y-685037D02*
G01*
X1634995Y-814323D01*
X1564891Y-740410D02*
G01*
X1454147Y-740410D01*
X1454147Y-722121D01*
X1463291Y-703579D01*
X1472435Y-694436D01*
X1490977Y-685037D01*
X1518663Y-685037D01*
X1537205Y-694436D01*
X1555747Y-712723D01*
X1564891Y-740410D01*
X1564891Y-758952D01*
X1555747Y-786637D01*
X1537205Y-805179D01*
X1518663Y-814323D01*
X1490977Y-814323D01*
X1472435Y-805179D01*
X1454147Y-786637D01*
X1291587Y-685037D02*
G01*
X1393187Y-814323D01*
X1393187Y-685037D02*
G01*
X1291587Y-685037D01*
X1393187Y-814323D02*
G01*
X1291587Y-814323D01*
X1184399Y-685037D02*
G01*
X1202687Y-694436D01*
X1221229Y-712723D01*
X1230627Y-740410D01*
X1230627Y-758952D01*
X1221229Y-786637D01*
X1202687Y-805179D01*
X1184399Y-814323D01*
X1156713Y-814323D01*
X1138171Y-805179D01*
X1119629Y-786637D01*
X1110485Y-758952D01*
X1110485Y-740410D01*
X1119629Y-712723D01*
X1138171Y-694436D01*
X1156713Y-685037D01*
X1184399Y-685037D01*
X833371Y-620521D02*
G01*
X907285Y-814323D01*
X833371Y-620521D02*
G01*
X759457Y-814323D01*
X879599Y-749807D02*
G01*
X787143Y-749807D01*
X698497Y-685037D02*
G01*
X698497Y-814323D01*
X698497Y-722121D02*
G01*
X670811Y-694436D01*
X652269Y-685037D01*
X624583Y-685037D01*
X606041Y-694436D01*
X596897Y-722121D01*
X596897Y-814323D01*
X596897Y-722121D02*
G01*
X569211Y-694436D01*
X550669Y-685037D01*
X522983Y-685037D01*
X504441Y-694436D01*
X495297Y-722121D01*
X495297Y-814323D01*
X434337Y-685037D02*
G01*
X434337Y-879094D01*
X434337Y-712723D02*
G01*
X415795Y-694436D01*
X397507Y-685037D01*
X369567Y-685037D01*
X351279Y-694436D01*
X332737Y-712723D01*
X323593Y-740410D01*
X323593Y-758952D01*
X332737Y-786637D01*
X351279Y-805179D01*
X369567Y-814323D01*
X397507Y-814323D01*
X415795Y-805179D01*
X434337Y-786637D01*
M02*
